<svg class="animated" id="freepik_stories-community" xmlns="http://www.w3.org/2000/svg" viewBox="0 0 500 500" version="1.1" xmlns:xlink="http://www.w3.org/1999/xlink" xmlns:svgjs="http://svgjs.com/svgjs"><style>svg#freepik_stories-community:not(.animated) .animable {opacity: 0;}svg#freepik_stories-community.animated #freepik--character-2--inject-2 {animation: 1.5s Infinite  linear wind;animation-delay: 0s;}svg#freepik_stories-community.animated #freepik--character-1--inject-2 {animation: 1.5s Infinite  linear wind;animation-delay: 0s;}            @keyframes wind {                0% {                    transform: rotate( 0deg );                }                25% {                    transform: rotate( 1deg );                }                75% {                    transform: rotate( -1deg );                }            }        .animator-hidden { display: none; }</style><g id="freepik--background-complete--inject-2" class="animable animator-active animator-hidden" style="transform-origin: 250px 228.23px;"><rect y="382.4" width="500" height="0.25" style="fill: rgb(235, 235, 235); transform-origin: 250px 382.525px;" id="elbfwiwl8ynsh" class="animable"></rect><rect x="359" y="391.92" width="90.9" height="0.25" style="fill: rgb(235, 235, 235); transform-origin: 404.45px 392.045px;" id="eln06uwjqz7m8" class="animable"></rect><rect x="306.33" y="389.21" width="24.89" height="0.25" style="fill: rgb(235, 235, 235); transform-origin: 318.775px 389.335px;" id="els84icexdgi" class="animable"></rect><rect x="349.52" y="401.21" width="38.59" height="0.25" style="fill: rgb(235, 235, 235); transform-origin: 368.815px 401.335px;" id="eldu7d8wbmfen" class="animable"></rect><rect x="52.46" y="399.53" width="22.64" height="0.25" style="fill: rgb(235, 235, 235); transform-origin: 63.78px 399.655px;" id="eltq9abkpztt" class="animable"></rect><rect x="84" y="399.53" width="26.89" height="0.25" style="fill: rgb(235, 235, 235); transform-origin: 97.445px 399.655px;" id="eljwe6mcghnt" class="animable"></rect><rect x="178.31" y="395.31" width="46.84" height="0.25" style="fill: rgb(235, 235, 235); transform-origin: 201.73px 395.435px;" id="elfsbsrzcprjf" class="animable"></rect><path d="M237,337.8H43.92a5.71,5.71,0,0,1-5.71-5.71V60.66A5.71,5.71,0,0,1,43.92,55H237a5.71,5.71,0,0,1,5.71,5.71V332.09A5.71,5.71,0,0,1,237,337.8ZM43.92,55.2a5.47,5.47,0,0,0-5.46,5.46V332.09a5.47,5.47,0,0,0,5.46,5.46H237a5.47,5.47,0,0,0,5.46-5.46V60.66A5.47,5.47,0,0,0,237,55.2Z" style="fill: rgb(235, 235, 235); transform-origin: 140.46px 196.4px;" id="el38fwzn8xcat" class="animable"></path><path d="M453.31,337.8H260.21a5.72,5.72,0,0,1-5.71-5.71V60.66A5.72,5.72,0,0,1,260.21,55h193.1A5.71,5.71,0,0,1,459,60.66V332.09A5.71,5.71,0,0,1,453.31,337.8ZM260.21,55.2a5.47,5.47,0,0,0-5.46,5.46V332.09a5.47,5.47,0,0,0,5.46,5.46h193.1a5.47,5.47,0,0,0,5.46-5.46V60.66a5.47,5.47,0,0,0-5.46-5.46Z" style="fill: rgb(235, 235, 235); transform-origin: 356.75px 196.4px;" id="el3qjhk7a0qsc" class="animable"></path><polygon points="357.38 152.66 368.37 152.66 367.07 126.22 357.38 126.22 357.38 152.66" style="fill: rgb(245, 245, 245); transform-origin: 362.875px 139.44px;" id="elqb46khp70zf" class="animable"></polygon><polygon points="425.37 155.72 430.44 168.28 425.37 168.28 394.29 155.72 425.37 155.72" style="fill: rgb(245, 245, 245); transform-origin: 412.365px 162px;" id="eliagnirkobs" class="animable"></polygon><polygon points="430.44 155.72 430.44 168.28 399.36 155.72 430.44 155.72" style="fill: rgb(230, 230, 230); transform-origin: 414.9px 162px;" id="el4hrw3n5cd82" class="animable"></polygon><polygon points="306.03 155.72 311.1 168.28 306.03 168.28 274.95 155.72 306.03 155.72" style="fill: rgb(245, 245, 245); transform-origin: 293.025px 162px;" id="elmiivm4zg0r" class="animable"></polygon><polygon points="311.1 155.72 311.1 168.28 280.02 155.72 311.1 155.72" style="fill: rgb(230, 230, 230); transform-origin: 295.56px 162px;" id="eljkfoqgjleoo" class="animable"></polygon><rect x="419.45" y="152.74" width="16.9" height="3.62" style="fill: rgb(230, 230, 230); transform-origin: 427.9px 154.55px;" id="elyvmmybi89p" class="animable"></rect><g id="elpuyk5x2jxba"><rect x="266.81" y="152.74" width="152.64" height="3.62" style="fill: rgb(245, 245, 245); transform-origin: 343.13px 154.55px; transform: rotate(180deg);" class="animable"></rect></g><polygon points="341.25 152.66 364.83 152.66 367.74 120.62 344.16 120.62 341.25 152.66" style="fill: rgb(230, 230, 230); transform-origin: 354.495px 136.64px;" id="el8wobtucdfjo" class="animable"></polygon><polygon points="340.03 152.66 363.61 152.66 366.52 120.62 342.94 120.62 340.03 152.66" style="fill: rgb(240, 240, 240); transform-origin: 353.275px 136.64px;" id="eltovco4x8bl9" class="animable"></polygon><polygon points="361.63 149.11 364.29 124.17 344.92 124.17 342.26 149.11 361.63 149.11" style="fill: rgb(255, 255, 255); transform-origin: 353.275px 136.64px;" id="elehv14nnpgcm" class="animable"></polygon><polygon points="320.06 152.66 336.24 152.66 334.33 113.72 320.06 113.72 320.06 152.66" style="fill: rgb(224, 224, 224); transform-origin: 328.15px 133.19px;" id="el1e4kmc0rg52" class="animable"></polygon><polygon points="296.29 152.66 331.02 152.66 335.32 105.47 300.58 105.47 296.29 152.66" style="fill: rgb(240, 240, 240); transform-origin: 315.805px 129.065px;" id="elvxfcnrm1e2" class="animable"></polygon><polygon points="294.49 152.66 329.22 152.66 333.52 105.47 298.78 105.47 294.49 152.66" style="fill: rgb(245, 245, 245); transform-origin: 314.005px 129.065px;" id="elzyu7px04ey" class="animable"></polygon><polygon points="326.31 147.43 330.24 110.69 301.7 110.69 297.77 147.43 326.31 147.43" style="fill: rgb(224, 224, 224); transform-origin: 314.005px 129.06px;" id="elkew1x5ki6j9" class="animable"></polygon><polygon points="398.68 152.66 417.86 152.66 415.6 106.5 398.68 106.5 398.68 152.66" style="fill: rgb(235, 235, 235); transform-origin: 408.27px 129.58px;" id="el9prrayuehrr" class="animable"></polygon><polygon points="370.5 152.66 411.68 152.66 416.77 96.72 375.6 96.72 370.5 152.66" style="fill: rgb(240, 240, 240); transform-origin: 393.635px 124.69px;" id="el2y4m2x5nq1m" class="animable"></polygon><polygon points="368.37 152.66 409.54 152.66 414.63 96.72 373.46 96.72 368.37 152.66" style="fill: rgb(250, 250, 250); transform-origin: 391.5px 124.69px;" id="el2sgxwuksafk" class="animable"></polygon><polygon points="406.09 146.47 410.74 102.92 376.92 102.92 372.26 146.47 406.09 146.47" style="fill: rgb(240, 240, 240); transform-origin: 391.5px 124.695px;" id="elc9xin96vnop" class="animable"></polygon><g id="elrkxkaq3tn0e"><rect x="76.56" y="87" width="143.87" height="229.8" style="fill: rgb(230, 230, 230); transform-origin: 148.495px 201.9px; transform: rotate(180deg);" class="animable"></rect></g><g id="elpm0vz8hx5i"><rect x="70.53" y="87" width="147.08" height="229.8" style="fill: rgb(240, 240, 240); transform-origin: 144.07px 201.9px; transform: rotate(180deg);" class="animable"></rect></g><g id="elj2oixlq9epe"><rect x="76.56" y="316.8" width="143.87" height="11.2" style="fill: rgb(230, 230, 230); transform-origin: 148.495px 322.4px; transform: rotate(180deg);" class="animable"></rect></g><g id="elc2n307iz3i"><rect x="60.5" y="316.8" width="147.08" height="11.2" style="fill: rgb(245, 245, 245); transform-origin: 134.04px 322.4px; transform: rotate(180deg);" class="animable"></rect></g><g id="elmn5i0srwjn"><rect x="37.61" y="136.8" width="212.93" height="130.21" style="fill: rgb(250, 250, 250); transform-origin: 144.075px 201.905px; transform: rotate(90deg);" class="animable"></rect></g><polygon points="191.35 308.37 169.01 95.44 132.77 95.44 155.12 308.37 191.35 308.37" style="fill: rgb(255, 255, 255); transform-origin: 162.06px 201.905px;" id="eld38dch7b67" class="animable"></polygon><polygon points="147.34 308.37 124.99 95.44 110.86 95.44 133.21 308.37 147.34 308.37" style="fill: rgb(255, 255, 255); transform-origin: 129.1px 201.905px;" id="elb58ctyw3t4" class="animable"></polygon><g id="eli9z53iqxgx"><rect x="-26.96" y="201.37" width="212.93" height="1.07" style="fill: rgb(230, 230, 230); transform-origin: 79.505px 201.905px; transform: rotate(90deg);" class="animable"></rect></g><path d="M120.16,313.05h-1.6c0-3.29,0-11.66-.16-30.82-.29-34.73-.84-36.85-.84-36.85l3.81,16C123.78,279.17,120.67,297,120.16,313.05Z" style="fill: rgb(230, 230, 230); transform-origin: 119.917px 279.215px;" id="el3cr3oea4jxq" class="animable"></path><path d="M122.18,261.58c3.12-6.53,9.76-8.44,16.57-10.06,2.67-.64-7,10.12-11.76,17.76-3.68,5.94-6,7.58-7,13.5C119.42,275.4,119.5,267.21,122.18,261.58Z" style="fill: rgb(230, 230, 230); transform-origin: 129.457px 267.136px;" id="elbniqs1shuyg" class="animable"></path><path d="M117.79,265.16c-2-3.89-7.71-8.82-9.66-8.74-1.48.05,4.31,8.61,7.14,13.38,2.2,3.7,3.39,5,4.42,8.16C119.19,274.33,119.52,268.52,117.79,265.16Z" style="fill: rgb(230, 230, 230); transform-origin: 113.791px 267.19px;" id="elm2c42ofojhh" class="animable"></path><path d="M122.23,275.51c2.44-3.64,8.67-7.87,10.6-7.58,1.47.23-5.28,8.07-8.63,12.47-2.61,3.43-4,4.56-5.33,7.6C119.78,284.45,120.12,278.64,122.23,275.51Z" style="fill: rgb(230, 230, 230); transform-origin: 125.953px 277.958px;" id="el4v9qdrruml" class="animable"></path><path d="M118.06,273.26c-3.12-6.53-12.42-11.38-19.23-13-2.67-.64,9.68,13.07,14.42,20.71,3.68,5.94,6,7.58,7,13.5C120.82,287.08,120.74,278.89,118.06,273.26Z" style="fill: rgb(230, 230, 230); transform-origin: 109.496px 277.354px;" id="elvrjam3c2htl" class="animable"></path><path d="M119.39,246.4c-3.28-7.47-8.21-15.17-14.79-18-2.59-1.09,6,14.43,9.25,24.44,2.53,7.77,5.89,16.9,6.41,23.46C121.92,266.5,124.52,258.11,119.39,246.4Z" style="fill: rgb(230, 230, 230); transform-origin: 113.265px 252.323px;" id="elbgli0pu1dso" class="animable"></path><path d="M118.88,316.8h0c4.9,0,9-4.79,9.23-10.92l.82-10.47H108.84l.82,10.47C109.94,312,114,316.8,118.88,316.8Z" style="fill: rgb(230, 230, 230); transform-origin: 118.885px 306.105px;" id="eld8z977qmqbp" class="animable"></path><polygon points="107.54 302.2 130.23 302.2 130.88 298.48 106.89 298.48 107.54 302.2" style="fill: rgb(230, 230, 230); transform-origin: 118.885px 300.34px;" id="elmfh60vsxrr7" class="animable"></polygon><polygon points="107.54 296.67 130.23 296.67 130.88 292.95 106.89 292.95 107.54 296.67" style="fill: rgb(230, 230, 230); transform-origin: 118.885px 294.81px;" id="elfynx52refqe" class="animable"></polygon><path d="M341.67,270.54a.94.94,0,0,0-.93-.75h-36a.94.94,0,0,0-.93.75L291,382.4H293L305.5,271.68H340L352.5,382.4h1.94Z" style="fill: rgb(240, 240, 240); transform-origin: 322.72px 326.095px;" id="elgw3bds3mmo6" class="animable"></path><path d="M411.39,270.54a.94.94,0,0,0-.93-.75h-36a.94.94,0,0,0-.93.75L360.75,382.4h1.94l12.53-110.72h34.47L422.23,382.4h1.93Z" style="fill: rgb(240, 240, 240); transform-origin: 392.455px 326.095px;" id="elfyg96psnqpc" class="animable"></path><path d="M412.42,262.59H299.16c-5.41,0-9.8,2.6-9.8,5.82v.2c0,1.17,1.6,2.12,3.57,2.12H418.64c2,0,3.58-1,3.58-2.12v-.2C422.22,265.19,417.83,262.59,412.42,262.59Z" style="fill: rgb(224, 224, 224); transform-origin: 355.79px 266.66px;" id="el7rmxsvtt1lo" class="animable"></path><path d="M346.59,235.94a26.65,26.65,0,1,0,53.3,0Z" style="fill: rgb(230, 230, 230); transform-origin: 373.24px 249.265px;" id="elto7gy1v1j18" class="animable"></path><path d="M324.75,242.05a20.54,20.54,0,1,0,41.08,0Z" style="fill: rgb(235, 235, 235); transform-origin: 345.29px 252.32px;" id="el5vv1ugurlpk" class="animable"></path></g><g id="freepik--Shadow--inject-2" class="animable animator-hidden" style="transform-origin: 250px 416.24px;"><ellipse id="freepik--path--inject-2" cx="250" cy="416.24" rx="193.89" ry="11.32" style="fill: rgb(245, 245, 245); transform-origin: 250px 416.24px;" class="animable"></ellipse></g><g id="freepik--character-3--inject-2" class="animable animator-hidden" style="transform-origin: 403.706px 264.595px;"><path d="M438.9,177.19c1.56,3.23,3,6.46,4.31,9.76s2.59,6.64,3.68,10.13c.14.44.27.88.4,1.33l.19.66.1.36.13.56a9.1,9.1,0,0,1-.12,4.3,14.65,14.65,0,0,1-3.35,5.88,31.74,31.74,0,0,1-9.13,6.88l-2.38-3.51a44.19,44.19,0,0,0,6.24-7.39,8.92,8.92,0,0,0,1.39-3.43,1.84,1.84,0,0,0-.12-.91l-.36-.92c-.14-.39-.29-.77-.46-1.17-1.25-3.12-2.65-6.28-4.06-9.43l-4.22-9.48Z" style="fill: rgb(127, 62, 59); transform-origin: 439.526px 197.12px;" id="eluk6yt87ccj" class="animable"></path><path d="M432.55,213l-5.73,3.51,6.11,5.24s4.15-3.36,4.08-7.3l-2.7-1.49A1.73,1.73,0,0,0,432.55,213Z" style="fill: rgb(127, 62, 59); transform-origin: 431.915px 217.244px;" id="elvafjdfgt5lf" class="animable"></path><polygon points="425.63 223.36 430.47 225.63 432.93 221.78 426.82 216.54 425.63 223.36" style="fill: rgb(127, 62, 59); transform-origin: 429.28px 221.085px;" id="elyll9i5fliuj" class="animable"></polygon><path d="M419.16,408.18a10.18,10.18,0,0,0,2.21-.3.19.19,0,0,0,.15-.16.18.18,0,0,0-.09-.2c-.28-.19-2.83-1.83-3.8-1.39a.66.66,0,0,0-.39.56,1.1,1.1,0,0,0,.32,1.05A2.4,2.4,0,0,0,419.16,408.18Zm1.65-.58c-1.46.29-2.55.24-3-.15a.74.74,0,0,1-.2-.71.29.29,0,0,1,.16-.25C418.31,406.26,419.77,407,420.81,407.6Z" style="fill: rgb(64, 123, 255); transform-origin: 419.368px 407.122px;" id="elmkraqklkjr" class="animable"></path><path d="M421.33,407.88l.1,0a.2.2,0,0,0,.09-.17c0-.11,0-2.52-.92-3.32a1,1,0,0,0-.84-.27.68.68,0,0,0-.66.55c-.19,1,1.33,2.75,2.13,3.21A.16.16,0,0,0,421.33,407.88Zm-1.43-3.39a.67.67,0,0,1,.44.17,4.6,4.6,0,0,1,.78,2.64c-.8-.64-1.75-2-1.64-2.57,0-.09.08-.21.33-.24Z" style="fill: rgb(64, 123, 255); transform-origin: 420.302px 405.999px;" id="el8fn74pzfrn3" class="animable"></path><path d="M420.59,148.07c-1,5-3,15,.45,18.35,0,0-1.36,5-10.6,5-10.15,0-4.85-5-4.85-5,5.54-1.32,5.4-5.43,4.44-9.3Z" style="fill: rgb(127, 62, 59); transform-origin: 412.623px 159.745px;" id="eloqpk6vj9y7o" class="animable"></path><path d="M410.19,162c-.63.87-1.14,2.12-.65,2.1,8.4-.36,10.44.12,10.32-.83s0-1.93-.46-1.93S410.49,161.62,410.19,162Z" style="fill: rgb(64, 123, 255); transform-origin: 414.605px 162.72px;" id="elej1wlheqs2o" class="animable"></path><path d="M419.05,164.09a4.76,4.76,0,0,0,1.78.22,1.52,1.52,0,0,1,.9.71,2.3,2.3,0,0,0-1.79-2.58C417.81,161.86,418.36,163.81,419.05,164.09Z" style="fill: rgb(64, 123, 255); transform-origin: 420.094px 163.676px;" id="elbs4hvkd7vnc" class="animable"></path><path d="M418.08,161.88c.56-1.13,2-1.61,2.44-.86s-.35,1.38-1.35,1.48S417.69,162.67,418.08,161.88Z" style="fill: rgb(64, 123, 255); transform-origin: 419.295px 161.609px;" id="el8xbs3oswrgm" class="animable"></path><path d="M418.62,161.94c1-.75,2.49-.55,2.57.33s-.94,1.07-1.88.71S417.91,162.47,418.62,161.94Z" style="fill: rgb(64, 123, 255); transform-origin: 419.734px 162.315px;" id="eldjbpchufsw" class="animable"></path><path d="M403.57,137.46a.41.41,0,0,1-.3-.21,3.17,3.17,0,0,0-2.27-1.74.4.4,0,1,1,.08-.79,4,4,0,0,1,2.9,2.17.4.4,0,0,1-.17.53A.41.41,0,0,1,403.57,137.46Z" style="fill: rgb(38, 50, 56); transform-origin: 402.307px 136.087px;" id="elw62vcezmvuj" class="animable"></path><path d="M400.65,141.84a17.72,17.72,0,0,1-2.88,4,2.92,2.92,0,0,0,2.35.72Z" style="fill: rgb(99, 15, 15); transform-origin: 399.21px 144.214px;" id="ellvmyqj5a8v" class="animable"></path><path d="M401.38,140.76c-.07.67-.49,1.17-.93,1.12s-.73-.63-.66-1.3.49-1.18.93-1.13S401.46,140.09,401.38,140.76Z" style="fill: rgb(38, 50, 56); transform-origin: 400.586px 140.665px;" id="elh3xrxu1xjq7" class="animable"></path><path d="M400.91,139.51l-1.56-.65S400,140.22,400.91,139.51Z" style="fill: rgb(38, 50, 56); transform-origin: 400.13px 139.288px;" id="elijwak6e1h6" class="animable"></path><polygon points="431.07 407.69 422.69 407.69 423.35 388.29 431.72 388.29 431.07 407.69" style="fill: rgb(127, 62, 59); transform-origin: 427.205px 397.99px;" id="elgpj2kzjm7kl" class="animable"></polygon><path d="M422,406.72h9.41a.66.66,0,0,1,.67.57l1.07,7.44a1.34,1.34,0,0,1-1.34,1.49c-3.29-.05-4.87-.25-9-.25-2.54,0-6.26.27-9.78.27s-3.7-3.48-2.24-3.79c6.57-1.42,7.61-3.36,9.82-5.22A2.21,2.21,0,0,1,422,406.72Z" style="fill: rgb(38, 50, 56); transform-origin: 421.544px 411.48px;" id="elh18930xabe" class="animable"></path><g id="el33k6hp1cwhe"><g style="opacity: 0.2; transform-origin: 427.37px 393.29px;" class="animable"><polygon points="431.73 388.29 423.35 388.29 423.01 398.29 431.39 398.29 431.73 388.29" id="elm0gykfykw8" class="animable" style="transform-origin: 427.37px 393.29px;"></polygon></g></g><path d="M424.21,141c-1.43,8.19-1.86,11.69-6.5,15.45-7,5.66-16.73,2.11-17.77-6.34-.94-7.61,1.57-19.72,10-22.1A11.34,11.34,0,0,1,424.21,141Z" style="fill: rgb(127, 62, 59); transform-origin: 412.079px 143.385px;" id="elfss4educob5" class="animable"></path><path d="M404.42,219.12s4.86,57.49,9.9,89.89c4.08,26.17,7.29,87.35,7.29,87.35H433s3.78-58.93,2.33-84.86c-3.44-61.5,5.81-74.67-5.91-92.38Z" style="fill: rgb(64, 123, 255); transform-origin: 420.041px 307.74px;" id="el6i81q1blgrb" class="animable"></path><g id="el6qfogpb38ui"><path d="M417.22,250.15c-.48,17.2-3.73,27.85-6.28,33.59-1.34-11.22-2.57-22.93-3.6-33.26C410.85,238.78,417.59,237.2,417.22,250.15Z" style="opacity: 0.2; transform-origin: 412.287px 262.399px;" class="animable"></path></g><path d="M409.84,404.12a.24.24,0,0,0,0-.2.21.21,0,0,0-.18-.14c-.42,0-4.17-.14-4.86.8a.63.63,0,0,0-.08.62,1.08,1.08,0,0,0,.73.72c1.17.36,3.21-1,4.32-1.78Zm-4.65.66c.44-.49,2.42-.63,3.9-.62-1.55,1.07-2.83,1.58-3.48,1.38a.71.71,0,0,1-.48-.47.22.22,0,0,1,0-.25Z" style="fill: rgb(64, 123, 255); transform-origin: 407.267px 404.876px;" id="elheu15njxak" class="animable"></path><path d="M409.84,404.12l0,0a.18.18,0,0,0,0-.2c0-.08-1.17-2-2.5-2.39a1.46,1.46,0,0,0-1.14.16c-.47.28-.5.6-.44.82.26.93,2.82,1.72,3.91,1.71A.2.2,0,0,0,409.84,404.12Zm-3.61-2,.19-.14a1,1,0,0,1,.84-.11,4.52,4.52,0,0,1,2.06,1.88c-1.18-.12-3-.84-3.16-1.4A.26.26,0,0,1,406.23,402.13Z" style="fill: rgb(64, 123, 255); transform-origin: 407.804px 402.849px;" id="el6o7o80k71bo" class="animable"></path><polygon points="419.06 401.64 411.14 404.4 408.32 397.04 404.64 387.4 404.21 386.28 412.12 383.51 412.61 384.77 416.17 394.11 419.06 401.64" style="fill: rgb(127, 62, 59); transform-origin: 411.635px 393.955px;" id="elmelp6yt0r38" class="animable"></polygon><g id="elguqd184fwj5"><polygon points="416.17 394.11 408.32 397.04 404.64 387.4 412.61 384.77 416.17 394.11" style="opacity: 0.2; transform-origin: 410.405px 390.905px;" class="animable"></polygon></g><path d="M395.44,219.12s-12.54,57.14-12.53,86.55c0,26.57,22.36,88.62,22.36,88.62l10.61-4.37s-10.29-66.75-12.68-82.18C409,283.74,419,250,419,219.12Z" style="fill: rgb(64, 123, 255); transform-origin: 400.955px 306.705px;" id="elxwn82ksih8g" class="animable"></path><path d="M409.78,402.87l8.52-4a.68.68,0,0,1,.85.24l4.12,6.29a1.35,1.35,0,0,1-.58,1.92c-3,1.34-4.51,1.83-8.26,3.58-2.3,1.08-6.49,4.56-9.94,5.24s-4.31-2.69-2.94-3.28c6.17-2.67,6-6.32,7.18-8.94A2.17,2.17,0,0,1,409.78,402.87Z" style="fill: rgb(38, 50, 56); transform-origin: 412.197px 407.519px;" id="elkoh9n6qmmq" class="animable"></path><polygon points="404.45 396.4 418.1 391.36 416.81 385.85 402.19 391.24 404.45 396.4" style="fill: rgb(38, 50, 56); transform-origin: 410.145px 391.125px;" id="elfrjz83zy7p9" class="animable"></polygon><polygon points="420.05 396.58 434.6 396.58 435.36 391.48 419.96 390.96 420.05 396.58" style="fill: rgb(38, 50, 56); transform-origin: 427.66px 393.77px;" id="ellvx07q913qk" class="animable"></polygon><path d="M442.69,181.61l-8.41,6.7-5,4s-.53-1.41-1.17-3.43c-1.23-3.9-2.81-10.08-1.71-12.92,1.73-4.5,5-8.56,9.14-7.66C439,169.09,442.69,181.61,442.69,181.61Z" style="fill: rgb(38, 50, 56); transform-origin: 434.36px 180.242px;" id="el27ix811xyem" class="animable"></path><g id="elw0hxbyvznul"><path d="M433.18,189.18l-3.95,3.16s-.53-1.41-1.17-3.43l3-14.85Z" style="opacity: 0.2; transform-origin: 430.62px 183.2px;" class="animable"></path></g><path d="M391.43,168.57s-4,1.4,4,50.55h34c-.57-13.84-.58-22.38,6-50.8a100.28,100.28,0,0,0-14.45-1.9,107.54,107.54,0,0,0-15.45,0C399,167,391.43,168.57,391.43,168.57Z" style="fill: rgb(38, 50, 56); transform-origin: 412.93px 192.631px;" id="el95p7o1boekc" class="animable"></path><path d="M395,179.14c-.75,4.38-1.64,8.65-2.69,13a103.45,103.45,0,0,1-3.85,13,24.78,24.78,0,0,1-1.72,3.58,9.54,9.54,0,0,1-.81,1.13,8.51,8.51,0,0,1-.94,1,8.41,8.41,0,0,1-2.51,1.56,8,8,0,0,1-3,.52,9.25,9.25,0,0,1-2.64-.48,13,13,0,0,1-3.79-2.09,27,27,0,0,1-5-5.26c-.7-.93-1.34-1.88-1.94-2.85a33.66,33.66,0,0,1-1.72-3l3.54-2.34c1.36,1.5,2.86,3,4.36,4.4a26.37,26.37,0,0,0,4.58,3.49,7.1,7.1,0,0,0,2,.8c.55.09.71,0,.73-.12s.09-.09.19-.22a2.49,2.49,0,0,0,.17-.24s0,0,.1-.21a17.94,17.94,0,0,0,.92-2.37c.61-1.85,1.14-3.89,1.63-5.93s1-4.12,1.43-6.2c.88-4.17,1.74-8.41,2.56-12.58Z" style="fill: rgb(127, 62, 59); transform-origin: 379.695px 195.331px;" id="eltt8sohsgvk9" class="animable"></path><path d="M391.43,168.57c-4.16,1-9.18,16.1-9.18,16.1l14.33,10.16s5.71-15.61,4.34-20C399.5,170.19,396.48,167.34,391.43,168.57Z" style="fill: rgb(38, 50, 56); transform-origin: 391.691px 181.557px;" id="elvhhjb6lfjq" class="animable"></path><path d="M405.42,141.84c-4.17-1.88-3.09-6.68-.42-5.75-9.56-6.87-4.41-10.09-1.53-8.41-1.26-1.85-5.55-7.12-5.14-12.06s9.57-2.62,13.74,3.63c-1.65-4.92,3.7-5.4,7.68.59a26.75,26.75,0,0,1,3.5,8.06s4.58-7.23,5.75-.3c1.29,7.68-2.58,10.41-2.58,10.41s6.71.6,3.34,5.07a17.48,17.48,0,0,1-3.34,2.91s2.46,1.68-.84,4.93c-2.75,2.71-5.5,5.16-10.25,5.41C410,156.62,403.08,150.77,405.42,141.84Z" style="fill: rgb(38, 50, 56); transform-origin: 414.505px 134.645px;" id="elfqh1b3bt27v" class="animable"></path><path d="M423.25,128.15a.25.25,0,0,1-.25-.23,26.65,26.65,0,0,0-2.32-8.38c-1.81-3.76-4.48-5.48-6-5-1,.31-1.34,1.5-1,3.17a.25.25,0,1,1-.49.09c-.37-1.94.15-3.34,1.37-3.74,1.72-.56,4.62,1.08,6.62,5.23a27,27,0,0,1,2.37,8.56.25.25,0,0,1-.23.27Z" style="fill: rgb(38, 50, 56); transform-origin: 418.312px 121.052px;" id="elva3ej3qj5ui" class="animable"></path><path d="M408.21,142.59a6.94,6.94,0,0,1-2.51,3.84c-1.69,1.29-3.07.18-3.05-1.65,0-1.64.91-4.3,2.83-4.89S408.61,140.78,408.21,142.59Z" style="fill: rgb(127, 62, 59); transform-origin: 405.468px 143.373px;" id="elrfcuqjn7uf" class="animable"></path><path d="M368.87,196.88l-3.95-2-1.57,7.1s4.78.82,6.82-2.13Z" style="fill: rgb(127, 62, 59); transform-origin: 366.76px 198.482px;" id="eljr8ykdjl2nh" class="animable"></path><polygon points="360.28 195.71 359.5 201.72 363.36 201.96 364.92 194.86 360.28 195.71" style="fill: rgb(127, 62, 59); transform-origin: 362.21px 198.41px;" id="elkq9s0ntvqe" class="animable"></polygon><path d="M430,217.13l1.54,3c.12.24-.16.48-.56.48H395.27c-.31,0-.56-.15-.58-.35l-.31-3c0-.21.25-.39.58-.39h34.45A.59.59,0,0,1,430,217.13Z" style="fill: rgb(64, 123, 255); transform-origin: 412.974px 218.736px;" id="el5nmv3omf6yl" class="animable"></path><g id="el6ys3vqvozf"><path d="M430,217.13l1.54,3c.12.24-.16.48-.56.48H395.27c-.31,0-.56-.15-.58-.35l-.31-3c0-.21.25-.39.58-.39h34.45A.59.59,0,0,1,430,217.13Z" style="fill: rgb(255, 255, 255); opacity: 0.2; transform-origin: 412.974px 218.736px;" class="animable"></path></g><path d="M425.34,221h.92c.18,0,.32-.1.31-.21l-.43-4c0-.12-.17-.21-.36-.21h-.92c-.18,0-.32.09-.31.21l.43,4C425,220.88,425.15,221,425.34,221Z" style="fill: rgb(64, 123, 255); transform-origin: 425.56px 218.79px;" id="elg1z0x8vm72l" class="animable"></path><path d="M403,221h.93c.18,0,.32-.1.31-.21l-.44-4c0-.12-.17-.21-.35-.21h-.92c-.19,0-.33.09-.32.21l.44,4C402.63,220.88,402.79,221,403,221Z" style="fill: rgb(64, 123, 255); transform-origin: 403.225px 218.79px;" id="elqxd4cf8ybvj" class="animable"></path></g><g id="freepik--character-2--inject-2" class="animable" style="transform-origin: 299.984px 263.82px;"><path d="M333,131.79c.58,2.48,3.16,5.48,6.2,5-2.45-1.15-3.22-6.81-3.22-6.81Z" style="fill: rgb(38, 50, 56); transform-origin: 336.1px 133.411px;" id="elwvq2b7pzol" class="animable"></path><path d="M333.3,131.79c0,2.54,1.76,6.07,4.82,6.32-2.09-1.7-2.64-7-2.64-7Z" style="fill: rgb(38, 50, 56); transform-origin: 335.71px 134.61px;" id="elvik6k8mjup" class="animable"></path><polygon points="270.75 402.43 262.82 401.21 263.53 382.51 271.46 383.73 270.75 402.43" style="fill: rgb(255, 195, 189); transform-origin: 267.14px 392.47px;" id="el56w8tqiq7qe" class="animable"></polygon><polygon points="320.28 408.04 312.26 408.04 310.12 389.45 318.15 389.45 320.28 408.04" style="fill: rgb(255, 195, 189); transform-origin: 315.2px 398.745px;" id="el0nfj7852623" class="animable"></polygon><path d="M311.49,407.11h9.79a.67.67,0,0,1,.66.55l1.29,7.14a1.23,1.23,0,0,1-1.23,1.42c-3.15-.05-5.44-.24-9.41-.24-2.44,0-9.8.26-13.17.26s-3.68-3.33-2.28-3.64c6.24-1.35,11-3.21,13-5A2,2,0,0,1,311.49,407.11Z" style="fill: rgb(38, 50, 56); transform-origin: 309.8px 411.675px;" id="elocrmi8575e" class="animable"></path><path d="M263,400.3l8.67,1.33a.7.7,0,0,1,.59.65l.48,7.29a1.17,1.17,0,0,1-1.36,1.23c-3.11-.53-7.6-1.41-11.53-2-4.59-.71-7.3-1-12.69-1.83-3.25-.5-3.65-3.93-2.24-4,6.41-.41,10.2.17,16.08-2.32A3.64,3.64,0,0,1,263,400.3Z" style="fill: rgb(38, 50, 56); transform-origin: 258.446px 405.547px;" id="el818u40aqgom" class="animable"></path><path d="M303.85,169.18c-1.27,3.15-2.65,6-4.07,9s-3,5.82-4.63,8.65-3.38,5.66-5.33,8.41a69.68,69.68,0,0,1-6.51,8l-.11.12-.19.19-.38.37c-.25.24-.58.49-.87.73s-.67.47-1,.68a10.19,10.19,0,0,1-1.19.6,9.19,9.19,0,0,1-5.47.54,11.34,11.34,0,0,1-4-1.73,16.84,16.84,0,0,1-2.57-2.17,28.68,28.68,0,0,1-3.52-4.43c-1-1.49-1.83-3-2.62-4.48a96.19,96.19,0,0,1-7.08-18.4l5.63-2.13c1.43,2.69,2.91,5.47,4.48,8.11s3.13,5.28,4.83,7.7a32.37,32.37,0,0,0,5.27,6.21,6.86,6.86,0,0,0,1.14.78c.31.16.49.14.37.08a1.32,1.32,0,0,0-.83,0,.46.46,0,0,0-.14.05s-.05,0-.05,0,0,0,0-.05l0,0,.11-.13a95.65,95.65,0,0,0,9.45-14.92c1.43-2.68,2.8-5.42,4.14-8.18s2.65-5.61,3.87-8.28Z" style="fill: rgb(255, 195, 189); transform-origin: 279.08px 185.581px;" id="elc2x9w502mru" class="animable"></path><path d="M307.32,165.2c1.43,7.53-7.93,18.3-7.93,18.3l-13.75-5.92s1.42-8.63,6.92-14.86C299.29,155.09,305.75,157,307.32,165.2Z" style="fill: rgb(38, 50, 56); transform-origin: 296.554px 170.705px;" id="elf5majw95l" class="animable"></path><g id="ely6nemx3bne"><path d="M299.89,167.86c3.75-1.34,6.52-.9,7.52,0-.68,7.16-8,15.6-8,15.6l-9.74-4.19C290.39,175.94,294,170,299.89,167.86Z" style="opacity: 0.2; transform-origin: 298.54px 175.236px;" class="animable"></path></g><path d="M260.42,175.29l-.31-6-8.06,1.32s-1.49,5.73,4.22,7Z" style="fill: rgb(255, 195, 189); transform-origin: 256.147px 173.45px;" id="els6xhey2dx8t" class="animable"></path><polygon points="259.29 166.83 252.63 168.17 252.05 170.56 260.11 169.24 259.29 166.83" style="fill: rgb(255, 195, 189); transform-origin: 256.08px 168.695px;" id="eljy10i6d64nd" class="animable"></polygon><g id="el9ckpl5rtoa9"><polygon points="263.53 382.52 263.16 392.15 271.1 393.37 271.47 383.74 263.53 382.52" style="opacity: 0.2; transform-origin: 267.315px 387.945px;" class="animable"></polygon></g><g id="elsxnjtfc1gm"><polygon points="318.15 389.46 310.12 389.46 311.22 399.04 319.25 399.04 318.15 389.46" style="opacity: 0.2; transform-origin: 314.685px 394.25px;" class="animable"></polygon></g><path d="M343.34,165.31c-11.58,29.51-13,61.89-14.4,68.33l-42.31-7.34c-1-39.88,9-61.92,11.68-67.09a2.4,2.4,0,0,1,2-1.29,126.1,126.1,0,0,1,21.33.8c7,.95,21.73,6.59,21.73,6.59" style="fill: rgb(38, 50, 56); transform-origin: 314.965px 195.71px;" id="eleoxwjt64e" class="animable"></path><path d="M305.19,227.78c0-.36-.62-36.72,7.57-59.66l.48.16c-8.17,22.86-7.55,59.13-7.55,59.49Z" style="fill: rgb(255, 255, 255); transform-origin: 309.21px 197.95px;" id="el9lvvytymun" class="animable"></path><path d="M315.3,171.4c-.21.71-.64,1.23-1,1.15s-.45-.73-.25-1.45.64-1.23,1-1.15S315.5,170.68,315.3,171.4Z" style="fill: rgb(255, 255, 255); transform-origin: 314.675px 171.25px;" id="el2p4rfhlgm99" class="animable"></path><path d="M313.33,179.69c-.16.73-.56,1.27-.91,1.21s-.5-.7-.34-1.43.56-1.26.91-1.2S313.49,179,313.33,179.69Z" style="fill: rgb(255, 255, 255); transform-origin: 312.705px 179.585px;" id="ellefdx171r9l" class="animable"></path><path d="M311.8,188.29c-.15.73-.54,1.27-.89,1.22s-.51-.69-.37-1.42.54-1.28.89-1.22S311.94,187.56,311.8,188.29Z" style="fill: rgb(255, 255, 255); transform-origin: 311.17px 188.189px;" id="elro78fr28nn" class="animable"></path><path d="M310.5,196.71c-.1.74-.46,1.31-.81,1.28s-.55-.66-.45-1.4.46-1.31.81-1.27S310.6,196,310.5,196.71Z" style="fill: rgb(255, 255, 255); transform-origin: 309.87px 196.655px;" id="ele4hficyhtcn" class="animable"></path><g id="el5c187eu0wqv"><path d="M339.23,177.18c-1.4,4.62-2.6,9.22-3.61,13.68-1.33-8.07-1.92-16.36-1.92-16.36Z" style="opacity: 0.2; transform-origin: 336.465px 182.68px;" class="animable"></path></g><path d="M331.12,140.63c-2.14,5.59-4.9,15.44-1.53,20-1.92,2.79-8.76,7-16.59,7.57-5.59-2.35-3.75-8.12-1.5-10.3,6.72-.43,7.29-5.07,6.95-9.76Z" style="fill: rgb(255, 195, 189); transform-origin: 320.214px 154.415px;" id="elch0ik1fbydm" class="animable"></path><g id="elwhbpcv3m7rb"><path d="M326,143.7l-7.5,4.44a19,19,0,0,1,0,3.29c2.52.07,6.38-2.05,7.09-4.59A8.71,8.71,0,0,0,326,143.7Z" style="opacity: 0.2; transform-origin: 322.256px 147.566px;" class="animable"></path></g><path d="M316.61,120.82c-7.71-1-5.92,9.62-2.93,13.62C323.61,128.21,321.28,121.44,316.61,120.82Z" style="fill: rgb(38, 50, 56); transform-origin: 315.872px 127.597px;" id="el2rughevthcx" class="animable"></path><path d="M314.94,123.16c-.17,3.75-3.11,8.77-7.64,8.88a12.44,12.44,0,0,0,4.28-6.13Z" style="fill: rgb(38, 50, 56); transform-origin: 311.12px 127.6px;" id="el9o5og872y5i" class="animable"></path><path d="M333.32,132.05c-1.84,7.75-2.52,12.38-7.18,15.71-7,5-16.05-.25-16.56-8.39-.46-7.33,2.63-18.78,10.84-20.56A10.86,10.86,0,0,1,333.32,132.05Z" style="fill: rgb(255, 195, 189); transform-origin: 321.591px 134.131px;" id="elok0ne0sosin" class="animable"></path><path d="M334.06,124.06c-7.72-1-5.93,9.61-2.94,13.61C340.75,132.37,338.72,124.67,334.06,124.06Z" style="fill: rgb(38, 50, 56); transform-origin: 333.258px 130.832px;" id="elw50juqf6kdj" class="animable"></path><path d="M333.63,125.28c-4.43,2.69-9.05-1.28-11.17-3s-6.89,1.64-12.54.3c-3.34-.8-3.81-4.09-3.81-6.19,2.43,4.46,6.45,5.12,8.84,3.23s5.27-5.34,8.72-3.56,8.34,4,10.55,3.45C338.07,118.54,338.63,122.24,333.63,125.28Z" style="fill: rgb(38, 50, 56); transform-origin: 321.677px 120.877px;" id="elbalgexhbfbr" class="animable"></path><path d="M321.89,121c-2.87,3.39-9.25,6-13.57,2.8a14.74,14.74,0,0,0,8.44-2.65Z" style="fill: rgb(38, 50, 56); transform-origin: 315.105px 123.126px;" id="elnx9of8g758r" class="animable"></path><path d="M326.06,122.28c-.49,3.72,1.51,9.18,5.95,10.09a12.43,12.43,0,0,1-3.13-6.79Z" style="fill: rgb(38, 50, 56); transform-origin: 328.999px 127.325px;" id="eliuj84o4qezc" class="animable"></path><path d="M334.67,131.67c-1.32,3.51-5.66,7.38-10,6.08,3.79-1.21,5.52-5.71,5.52-5.71Z" style="fill: rgb(38, 50, 56); transform-origin: 329.67px 134.839px;" id="elpulk05u635q" class="animable"></path><path d="M315.87,118.08c.41-.81,3-3.78,8.74-4.75,8.74-1.46,13.73,5.7,18.14,1.71,1.29-1.16,2.58,1.38,1.08,3-1.32,1.47-.55,12.7-6.29,11.63C334,129,315.87,118.08,315.87,118.08Z" style="fill: rgb(64, 123, 255); transform-origin: 330.187px 121.436px;" id="elzhzt8pkbb7d" class="animable"></path><g id="el9wao0ov53l"><path d="M315.87,118.08c.41-.81,3-3.78,8.74-4.75,8.74-1.46,13.73,5.7,18.14,1.71,1.29-1.16,2.58,1.38,1.08,3-1.32,1.47-.55,12.7-6.29,11.63C334,129,315.87,118.08,315.87,118.08Z" style="fill: rgb(255, 255, 255); opacity: 0.2; transform-origin: 330.187px 121.436px;" class="animable"></path></g><path d="M312.33,120.65c-1.61-.36,2.63-3.36,3.75-3.4S337.92,124,338.42,130a13.2,13.2,0,0,1-1.27,2.67.67.67,0,0,1-.95.18C333.59,131,322.09,122.84,312.33,120.65Z" style="fill: rgb(64, 123, 255); transform-origin: 325.195px 125.112px;" id="elpu0jn1pxfa" class="animable"></path><circle cx="344.51" cy="115.62" r="4.22" style="fill: rgb(64, 123, 255); transform-origin: 344.51px 115.62px;" id="el4rz9y7wfr3o" class="animable"></circle><path d="M335.31,139.54a7,7,0,0,1-4.38,3c-2.34.46-3.24-1.75-2.37-3.93.8-2,3-4.55,5.21-4S336.57,137.64,335.31,139.54Z" style="fill: rgb(255, 195, 189); transform-origin: 332.099px 138.568px;" id="el3j51r8dy4c6" class="animable"></path><path d="M261.14,389.85l13.44,2.06s2.77-46.82,7.64-71.35c1.49-7.47,5.6-17,9.26-28,4.61-13.83,10.15-28.72,14.62-40.37,4.72-12.27,8.2-21.08,8.2-21.08l-27.67-4.81s-23.85,64.61-27.17,88.88C256,340.42,261.14,389.85,261.14,389.85Z" style="fill: rgb(64, 123, 255); transform-origin: 286.281px 309.105px;" id="el329z13ckjz3" class="animable"></path><g id="eltxdglhgzbwq"><path d="M261.14,389.85l13.44,2.06s2.77-46.82,7.64-71.35c1.49-7.47,5.6-17,9.26-28,4.61-13.83,10.15-28.72,14.62-40.37,4.72-12.27,8.2-21.08,8.2-21.08l-27.67-4.81s-23.85,64.61-27.17,88.88C256,340.42,261.14,389.85,261.14,389.85Z" style="opacity: 0.3; transform-origin: 286.281px 309.105px;" class="animable"></path></g><g id="elkrovsaox5gj"><path d="M291.48,292.56c4.61-13.83,10.15-28.72,14.62-40.37l-2.26-6.56C296.05,253.17,291.56,278.54,291.48,292.56Z" style="opacity: 0.2; transform-origin: 298.79px 269.095px;" class="animable"></path></g><path d="M299.81,228.59s-2.25,69.12-1.25,92.61c1.1,25.74,8.95,76,8.95,76h14.7s-3.27-45.57-3-70.68c.36-28.6,9.69-92.86,9.69-92.86Z" style="fill: rgb(64, 123, 255); transform-origin: 313.602px 312.895px;" id="elc2okswbd1om" class="animable"></path><g id="el6702y9mi9z3"><path d="M299.81,228.59s-2.25,69.12-1.25,92.61c1.1,25.74,8.95,76,8.95,76h14.7s-3.27-45.57-3-70.68c.36-28.6,9.69-92.86,9.69-92.86Z" style="opacity: 0.3; transform-origin: 313.602px 312.895px;" class="animable"></path></g><polygon points="305.75 397.5 323.06 397.5 323.06 392.33 303.71 391.99 305.75 397.5" style="fill: rgb(64, 123, 255); transform-origin: 313.385px 394.745px;" id="eltp5cc65qevi" class="animable"></polygon><polygon points="259.41 389.9 275.42 392.36 276.21 387.19 258.36 384.17 259.41 389.9" style="fill: rgb(64, 123, 255); transform-origin: 267.285px 388.265px;" id="elhkr67vahz4g" class="animable"></polygon><path d="M321.72,132.29c-.11.64-.54,1.09-1,1s-.67-.65-.56-1.28.54-1.1,1-1S321.83,131.65,321.72,132.29Z" style="fill: rgb(38, 50, 56); transform-origin: 320.94px 132.149px;" id="elfcx3646iqfe" class="animable"></path><path d="M314.51,131c-.11.64-.54,1.09-.95,1s-.67-.65-.56-1.28.54-1.1,1-1S314.62,130.4,314.51,131Z" style="fill: rgb(38, 50, 56); transform-origin: 313.759px 130.859px;" id="elzwjaq12xk9" class="animable"></path><path d="M316.08,131.64a22.75,22.75,0,0,1-4,4.92,3.76,3.76,0,0,0,3,1.11Z" style="fill: rgb(237, 132, 126); transform-origin: 314.08px 134.662px;" id="el7nu4br5boon" class="animable"></path><path d="M317.43,139.84a5.35,5.35,0,0,0,4-1.47.19.19,0,0,0,0-.27.2.2,0,0,0-.27,0,5.12,5.12,0,0,1-4.46,1.26.2.2,0,0,0-.22.16.19.19,0,0,0,.15.22A6.32,6.32,0,0,0,317.43,139.84Z" style="fill: rgb(38, 50, 56); transform-origin: 318.982px 138.948px;" id="elhblfnze932" class="animable"></path><path d="M323.68,130.23a.41.41,0,0,0,.19,0,.39.39,0,0,0,.17-.51,3.81,3.81,0,0,0-2.78-2.08.38.38,0,0,0-.08.76h0a3,3,0,0,1,2.18,1.66A.37.37,0,0,0,323.68,130.23Z" style="fill: rgb(38, 50, 56); transform-origin: 322.457px 128.94px;" id="eleuq28zxl5gj" class="animable"></path><path d="M311.17,127.9a.37.37,0,0,0,.32-.15,3,3,0,0,1,2.41-1.33.39.39,0,0,0,.4-.37.39.39,0,0,0-.37-.39,3.76,3.76,0,0,0-3.05,1.64.37.37,0,0,0,.08.53A.35.35,0,0,0,311.17,127.9Z" style="fill: rgb(38, 50, 56); transform-origin: 312.551px 126.78px;" id="elr62sukrhren" class="animable"></path><path d="M308.78,408.52a9.86,9.86,0,0,0,2.11-.29.22.22,0,0,0,.15-.16.2.2,0,0,0-.08-.19c-.29-.18-2.81-1.77-3.72-1.32a.64.64,0,0,0-.34.54,1.1,1.1,0,0,0,.35,1A2.39,2.39,0,0,0,308.78,408.52Zm1.57-.56c-1.38.27-2.42.22-2.85-.15a.75.75,0,0,1-.23-.68.27.27,0,0,1,.13-.23C307.87,406.66,309.32,407.35,310.35,408Z" style="fill: rgb(64, 123, 255); transform-origin: 308.963px 407.503px;" id="eljpo5z3tz8y" class="animable"></path><path d="M310.84,408.23a.2.2,0,0,0,.11,0A.2.2,0,0,0,311,408c0-.1-.1-2.42-1-3.18a1,1,0,0,0-.8-.24h0a.63.63,0,0,0-.62.49c-.21.9,1.32,2.66,2.13,3.11ZM309.36,405a.62.62,0,0,1,.43.17,4.3,4.3,0,0,1,.84,2.51c-.8-.63-1.77-2-1.64-2.48,0-.05,0-.17.28-.2h.09Z" style="fill: rgb(64, 123, 255); transform-origin: 309.789px 406.404px;" id="ely94hn4e8ht" class="animable"></path><path d="M262.06,401.28a.21.21,0,0,0,.15-.14.2.2,0,0,0-.07-.21c-.33-.24-3.27-2.34-4.32-1.95a.62.62,0,0,0-.39.45h0a1.08,1.08,0,0,0,.22,1c.75.9,3.07.94,4.39.88Zm-4-2c.63-.11,2.26.81,3.42,1.6-1.79,0-3.09-.25-3.51-.76a.68.68,0,0,1-.13-.64.22.22,0,0,1,.14-.18Z" style="fill: rgb(64, 123, 255); transform-origin: 259.803px 400.13px;" id="el4qjzs1qkvek" class="animable"></path><path d="M262.06,401.28l.06,0a.2.2,0,0,0,.1-.16c0-.09.12-2.26-.76-3.25a1.4,1.4,0,0,0-1-.48h0c-.52,0-.71.21-.78.42-.28.87,1.35,2.88,2.25,3.46A.31.31,0,0,0,262.06,401.28Zm-1.81-3.52h.19a1,1,0,0,1,.73.36,4.41,4.41,0,0,1,.67,2.61c-.88-.74-2-2.29-1.79-2.81C260.06,397.87,260.08,397.79,260.25,397.76Zm.2-.2Z" style="fill: rgb(64, 123, 255); transform-origin: 260.937px 399.336px;" id="elyn8s5rvjp7" class="animable"></path><path d="M344.63,170.19c1.25,2.63,2.27,5.14,3.32,7.74s2,5.21,2.88,7.86a113.52,113.52,0,0,1,4.28,16.49c.23,1.46.46,2.9.58,4.41l.11,1.12,0,.28,0,.57a9.85,9.85,0,0,1,0,1.21,9.18,9.18,0,0,1-1.82,4.55,10.74,10.74,0,0,1-2.91,2.58,15.32,15.32,0,0,1-2.71,1.29,23.25,23.25,0,0,1-4.86,1.17,46.42,46.42,0,0,1-8.83.33,61.19,61.19,0,0,1-8.49-1l.32-6a93.78,93.78,0,0,0,15-2.69,17.72,17.72,0,0,0,2.91-1.18c.78-.38,1.22-.95.91-.76a1.66,1.66,0,0,0-.39.8c0,.07,0,.15,0,.2v.06l0-.22-.16-.89c-.18-1.18-.47-2.39-.74-3.6-.58-2.42-1.26-4.88-2.06-7.33s-1.64-4.92-2.53-7.36-1.86-4.9-2.81-7.34-2-4.91-3-7.21Z" style="fill: rgb(255, 195, 189); transform-origin: 340.999px 195.029px;" id="elut8dt2a6fb" class="animable"></path><path d="M343.34,165.31c4.15,2.25,7,15.77,7,15.77l-12.3,7.56s-3.18-6.24-5.52-11.39C328.08,167.42,335.16,160.89,343.34,165.31Z" style="fill: rgb(38, 50, 56); transform-origin: 340.745px 176.271px;" id="elhwwtcl6vfmg" class="animable"></path><path d="M327.54,212.65l-8.09-.35L323,220s7.63-.46,6.62-4.11Z" style="fill: rgb(255, 195, 189); transform-origin: 324.581px 216.15px;" id="eloamwor455d" class="animable"></path><polygon points="314.12 217.6 318.15 222.62 323.03 219.96 319.44 212.29 314.12 217.6" style="fill: rgb(255, 195, 189); transform-origin: 318.575px 217.455px;" id="elt9cmprmov4" class="animable"></polygon></g><g id="freepik--character-1--inject-2" class="animable" style="transform-origin: 183.708px 268.312px;"><path d="M125.57,175.12c.49,2.55,1,5.29,1.67,7.91s1.26,5.29,2,7.89c.36,1.31.75,2.61,1.15,3.89s.8,2.57,1.23,3.85.88,2.53,1.37,3.76c.24.63.48,1.25.75,1.85l.39.91.2.45.1.23,0,.12s0,0,0,0l-.05-.09c-.08-.13-.17-.24-.3-.41a4.72,4.72,0,0,0-.46-.4,2.91,2.91,0,0,0-1-.43c-.55-.07-.64,0-.62,0a4.35,4.35,0,0,0,1-.41,22.48,22.48,0,0,0,3.06-2c2.09-1.54,4.19-3.28,6.24-5.08s4.12-3.64,6.14-5.52,4.06-3.79,6.07-5.68l3.17,2.8c-1.7,2.29-3.47,4.46-5.28,6.64s-3.71,4.28-5.65,6.38a81.83,81.83,0,0,1-6.26,6.05,31.57,31.57,0,0,1-3.8,2.84,10.88,10.88,0,0,1-2.82,1.27,6.09,6.09,0,0,1-2.69.15,4.88,4.88,0,0,1-2-.83,4.83,4.83,0,0,1-1.45-1.57l-.12-.21-.08-.15-.06-.13-.12-.24-.25-.5-.48-1c-.34-.66-.64-1.32-.93-2-.62-1.33-1.17-2.67-1.71-4-1.07-2.69-2-5.42-2.86-8.17s-1.62-5.51-2.29-8.3-1.25-5.54-1.72-8.5Z" style="fill: rgb(181, 91, 82); transform-origin: 137.395px 193.648px;" id="ela6xcl5vm9zk" class="animable"></path><path d="M122.21,165.83c4.83,1,7.79,24.67,7.79,24.67l-12.49.52s-4.85-14.67-3.4-20.56C115.16,166.17,117.14,164.82,122.21,165.83Z" style="fill: rgb(64, 123, 255); transform-origin: 121.92px 178.266px;" id="el4907yi184z" class="animable"></path><path d="M117,190.26a5.06,5.06,0,0,0,.26,2.06c.3.56,11.59-.78,12.51-1.06s1-2,1-2.33S117,189.4,117,190.26Z" style="fill: rgb(64, 123, 255); transform-origin: 123.877px 190.655px;" id="eli660kzj7gf" class="animable"></path><g id="elcjnhqxr9sb6"><path d="M117,190.26a5.06,5.06,0,0,0,.26,2.06c.3.56,11.59-.78,12.51-1.06s1-2,1-2.33S117,189.4,117,190.26Z" style="opacity: 0.1; transform-origin: 123.877px 190.655px;" class="animable"></path></g><g id="el3ih9mo1qad"><path d="M126.94,190.63l-.43-1.64-2.92-11.28-.91,11.55-.12,1.55-.11,1.38c1.64-.15,3.38-.35,4.76-.53Z" style="opacity: 0.2; transform-origin: 124.83px 184.95px;" class="animable"></path></g><path d="M153.27,188l.46-3.45,6.11-1.08s-.63,5.32-3.86,6.59Z" style="fill: rgb(181, 91, 82); transform-origin: 156.555px 186.765px;" id="elwu3580b5mec" class="animable"></path><polygon points="154.06 179.64 160.37 179.15 159.84 183.42 153.73 184.5 154.06 179.64" style="fill: rgb(181, 91, 82); transform-origin: 157.05px 181.825px;" id="el688axr592vk" class="animable"></polygon><polygon points="113.61 405.89 121.95 405.89 123.21 386.57 114.87 386.57 113.61 405.89" style="fill: rgb(181, 91, 82); transform-origin: 118.41px 396.23px;" id="elh0d626ok4bi" class="animable"></polygon><polygon points="65.15 388.94 73.27 390.85 80.3 372.66 72.18 370.75 65.15 388.94" style="fill: rgb(181, 91, 82); transform-origin: 72.725px 380.8px;" id="eli8rql45k1n" class="animable"></polygon><path d="M74.53,390.16,66.13,386a.67.67,0,0,0-.85.21L61,392.4a1.34,1.34,0,0,0,.54,1.92c3,1.4,4.45,1.92,8.15,3.75,2.27,1.12,7.72,5.15,10.86,6.7s4.84-1.47,3.67-2.39a28.61,28.61,0,0,1-8.7-11.14A2.17,2.17,0,0,0,74.53,390.16Z" style="fill: rgb(38, 50, 56); transform-origin: 72.6912px 395.566px;" id="el8uuv1e8skm5" class="animable"></path><path d="M122.59,404.92h-9.37a.67.67,0,0,0-.67.57l-1.07,7.42a1.34,1.34,0,0,0,1.34,1.48c3.27-.06,4.84-.25,9-.25,2.54,0,7.78.26,11.28.26s3.69-3.46,2.23-3.77c-6.53-1.41-9.11-3.35-11.31-5.2A2.19,2.19,0,0,0,122.59,404.92Z" style="fill: rgb(38, 50, 56); transform-origin: 123.831px 409.66px;" id="el9dseyd8b0xi" class="animable"></path><g id="ellwae1mentj"><g style="opacity: 0.2; transform-origin: 95.88px 383.64px;" class="animable"><polygon points="123.21 386.57 122.56 396.53 114.22 396.53 114.87 386.57 123.21 386.57" id="eldghmp46cwie" class="animable" style="transform-origin: 118.715px 391.55px;"></polygon><polygon points="72.18 370.75 80.3 372.67 76.43 382.67 68.55 380.13 72.18 370.75" id="el9mgg4jjq5io" class="animable" style="transform-origin: 74.425px 376.71px;"></polygon></g></g><path d="M122.21,165.83s4.07,1.12-.44,50.5L88,218.71c-.4-13.8-1-22.28-9.53-50a99.66,99.66,0,0,1,14.21-2.9A106.23,106.23,0,0,1,108,164.69C114.63,164.83,122.21,165.83,122.21,165.83Z" style="fill: rgb(64, 123, 255); transform-origin: 101.183px 191.7px;" id="el03nzkwgi9qz5" class="animable"></path><g id="el63k00mzxyh"><path d="M80.78,175.37l-.18.49c3.83,13.06,5.58,21.25,6.44,28.34A17.81,17.81,0,0,0,89.52,196C90.06,186,85.34,176,80.78,175.37Z" style="opacity: 0.2; transform-origin: 85.0812px 189.785px;" class="animable"></path></g><path d="M83.55,133.94c-3.23,2.92.11,6.55-.72,10.27s1,4.61.66,7a16.82,16.82,0,0,1-2.18,6.55s28.91,2.45,34.47-2c2.78-2.22-3.72-11.38-2.78-14.83s3.57-8,.44-12.56c-4-5.8-15.92-9.55-25.33-1.61C81.72,127.67,83.55,133.94,83.55,133.94Z" style="fill: rgb(38, 50, 56); transform-origin: 98.8934px 140.329px;" id="elzis2spapv4m" class="animable"></path><path d="M93.58,148.38c1.32,4.87,4,14.54.75,18.08,0,0,3.5,1,8.34,2.21,3.5-1.63,4.37-2.88,4.37-2.88-4-1.07-4.16-6.12-3.47-10Z" style="fill: rgb(181, 91, 82); transform-origin: 100.31px 158.525px;" id="elt0pchrqt4fc" class="animable"></path><path d="M93.58,165.66c.53-.93-.45-3.2-.62-5.12s1.87-1.37,4.29-.79,8.59-2,8.84.21.41,4.83,1.33,5.21-.63,3.29-4.84,4.21S92.38,167.76,93.58,165.66Z" style="fill: rgb(64, 123, 255); transform-origin: 100.313px 164.311px;" id="el81nm09rwny9" class="animable"></path><g id="elcyhx0yp9ppm"><path d="M93.92,161.82a38,38,0,0,0,9.66.44C102.21,163.17,96.52,163.67,93.92,161.82Z" style="opacity: 0.1; transform-origin: 98.75px 162.448px;" class="animable"></path></g><g id="elks0lsg5szmr"><path d="M97.66,151.39l5.91,4.37a15.4,15.4,0,0,0-.29,2.76c-2.12-.16-5.55-1.72-6.17-4C96.82,153.48,97.51,151.92,97.66,151.39Z" style="opacity: 0.2; transform-origin: 100.305px 154.955px;" class="animable"></path></g><path d="M87.34,139.18c1.85,8.07,2.46,11.52,7.27,15,7.24,5.27,16.74,1.23,17.34-7.23.54-7.61-2.58-19.53-11.1-21.45A11.29,11.29,0,0,0,87.34,139.18Z" style="fill: rgb(181, 91, 82); transform-origin: 99.5132px 140.876px;" id="elii42jatjg9" class="animable"></path><path d="M90.75,126.42c4.53-1.25,13.46-6.21,19.65,3.93-.58,1.39-6.71,2-6.71,2s-.86-3.59-2.59-4.73a30.73,30.73,0,0,1,1.31,5.14s-7.32,2.59-10.73,2.36S86.67,127.54,90.75,126.42Z" style="fill: rgb(38, 50, 56); transform-origin: 99.3642px 129.62px;" id="eltv0f4m7hpr" class="animable"></path><path d="M121.77,216.33s11.07,63.64,12.3,89c1.29,26.44-9.73,89.22-9.73,89.22H113.06s3.27-59.9.45-85.75C110.44,280.67,97,218.07,97,218.07Z" style="fill: rgb(38, 50, 56); transform-origin: 115.588px 305.44px;" id="elzu9hchcyxe9" class="animable"></path><polygon points="112.09 395.01 125.32 395.01 126.29 390.79 111.47 390.27 112.09 395.01" style="fill: rgb(64, 123, 255); transform-origin: 118.88px 392.64px;" id="el4ivwwjrxzgj" class="animable"></polygon><g id="elfq1k51it1nc"><path d="M108.31,233.31c9.48,16.11,5,47,2.84,58.58-2.7-16.92-6.7-37.55-9.75-52.69C102.05,230.47,103.94,225.88,108.31,233.31Z" style="opacity: 0.2; transform-origin: 107.758px 260.739px;" class="animable"></path></g><path d="M112.84,217s-3,67.18-7.25,89c-5.08,25.88-26.51,74.68-26.51,74.68l-10.77-3.91s11.77-51,15.41-67.5c6.61-30-3.39-71.24,4.25-90.5Z" style="fill: rgb(38, 50, 56); transform-origin: 90.575px 298.84px;" id="el5wk7l4j8omi" class="animable"></path><polygon points="66.53 377.27 79.74 382.21 82.71 378.58 67.42 372.06 66.53 377.27" style="fill: rgb(64, 123, 255); transform-origin: 74.62px 377.135px;" id="elng64q16yq38" class="animable"></polygon><path d="M100.7,139.19c.11.66.55,1.14,1,1.07s.7-.67.59-1.33-.55-1.15-1-1.07S100.59,138.52,100.7,139.19Z" style="fill: rgb(38, 50, 56); transform-origin: 101.495px 139.059px;" id="el91mdxkidx0g" class="animable"></path><path d="M108.2,138c.11.66.55,1.14,1,1.07s.7-.67.59-1.33-.55-1.15-1-1.08S108.09,137.28,108.2,138Z" style="fill: rgb(38, 50, 56); transform-origin: 108.995px 137.865px;" id="elaqntq78y749" class="animable"></path><path d="M108.6,136.68l1.52-.72S109.51,137.34,108.6,136.68Z" style="fill: rgb(38, 50, 56); transform-origin: 109.36px 136.409px;" id="el6abkugna3sp" class="animable"></path><path d="M106.09,139.52a17.67,17.67,0,0,0,3.06,3.85,2.89,2.89,0,0,1-2.29.83Z" style="fill: rgb(160, 39, 36); transform-origin: 107.62px 141.866px;" id="elt61903pykx" class="animable"></path><path d="M103.67,147.4a5.87,5.87,0,0,0,1-.09.19.19,0,1,0-.06-.38,5.36,5.36,0,0,1-4.63-1.35.2.2,0,1,0-.29.27A5.51,5.51,0,0,0,103.67,147.4Z" style="fill: rgb(38, 50, 56); transform-origin: 102.225px 146.448px;" id="elcir4mic57m4" class="animable"></path><path d="M89.88,144.88c3.91-4.67,5.2-12.42-.21-17.21C86.17,131.21,83.08,142,89.88,144.88Z" style="fill: rgb(38, 50, 56); transform-origin: 89.5608px 136.275px;" id="elwcd82ujyulh" class="animable"></path><path d="M86,145.94A6.1,6.1,0,0,0,89.46,149c2,.67,3.12-1.1,2.65-3.06-.42-1.76-2-4.22-4-4.05A2.73,2.73,0,0,0,86,145.94Z" style="fill: rgb(181, 91, 82); transform-origin: 88.9344px 145.513px;" id="elz7529qj1lig" class="animable"></path><path d="M97.71,137.2a.38.38,0,0,0,.4-.24c.73-1.67,3-2.16,3.06-2.17a.38.38,0,0,0,.3-.46A.39.39,0,0,0,101,134c-.11,0-2.73.58-3.62,2.63a.39.39,0,0,0,.2.52A.27.27,0,0,0,97.71,137.2Z" style="fill: rgb(38, 50, 56); transform-origin: 99.4124px 135.597px;" id="elg275srx43qs" class="animable"></path><path d="M110.88,133.91a.38.38,0,0,0,.36-.15.39.39,0,0,0-.08-.55,3.9,3.9,0,0,0-3.53-.72.39.39,0,0,0,.26.74,3.15,3.15,0,0,1,2.79.61A.37.37,0,0,0,110.88,133.91Z" style="fill: rgb(38, 50, 56); transform-origin: 109.344px 133.127px;" id="elkusfvflcs1" class="animable"></path><path d="M78,393.07l.1,0a1.11,1.11,0,0,0,.75-.79.68.68,0,0,0-.1-.67c-.68-.83-3.67-.48-4-.44a.18.18,0,0,0-.17.14.2.2,0,0,0,.07.21C75.43,392.17,77,393.27,78,393.07Zm-2.74-1.59c1.2-.1,2.83-.09,3.18.35a.26.26,0,0,1,0,.29.73.73,0,0,1-.49.54C77.4,392.83,76.41,392.38,75.23,391.48Z" style="fill: rgb(64, 123, 255); transform-origin: 76.7349px 392.078px;" id="elz1n6szyaot" class="animable"></path><path d="M75.05,391.49c1-.2,2.79-1,3-1.88a.68.68,0,0,0-.35-.79,1.07,1.07,0,0,0-.87-.13c-1.17.32-2.24,2.46-2.29,2.56a.19.19,0,0,0,0,.19.2.2,0,0,0,.17.09A1.88,1.88,0,0,0,75.05,391.49Zm2-2.43a.59.59,0,0,1,.48.09c.22.14.21.27.19.36-.15.56-1.6,1.36-2.59,1.57.4-.69,1.16-1.82,1.86-2Z" style="fill: rgb(64, 123, 255); transform-origin: 76.2947px 390.09px;" id="eleqrdmr9pfo" class="animable"></path><path d="M125.72,406.38a3.16,3.16,0,0,0,2-.51,1.13,1.13,0,0,0,.36-1,.64.64,0,0,0-.34-.52c-1-.56-4.34,1.14-4.72,1.33a.21.21,0,0,0-.1.21.18.18,0,0,0,.15.16A14.33,14.33,0,0,0,125.72,406.38Zm1.49-1.73a.74.74,0,0,1,.36.08.23.23,0,0,1,.14.21.71.71,0,0,1-.23.63c-.51.46-1.88.54-3.73.23A10.81,10.81,0,0,1,127.21,404.65Z" style="fill: rgb(64, 123, 255); transform-origin: 125.505px 405.314px;" id="elu020eh0l2ab" class="animable"></path><path d="M123.13,406.09l.08,0c1-.45,3-2.25,2.81-3.2,0-.22-.19-.5-.74-.55a1.41,1.41,0,0,0-1.1.34c-1,.87-1.24,3.12-1.24,3.21a.18.18,0,0,0,.08.18A.21.21,0,0,0,123.13,406.09Zm2-3.39h.12c.36,0,.38.18.39.23.09.57-1.24,2-2.25,2.59a4.5,4.5,0,0,1,1.06-2.57A1.05,1.05,0,0,1,125.12,402.7Z" style="fill: rgb(64, 123, 255); transform-origin: 124.485px 404.21px;" id="elhsintdw4xkh" class="animable"></path><path d="M101.1,137.92l1.52-.72S102,138.58,101.1,137.92Z" style="fill: rgb(38, 50, 56); transform-origin: 101.86px 137.649px;" id="elh32jfi470vd" class="animable"></path><path d="M87.33,216.76l-.65,3.09c-.11.24.19.46.58.43L122,217.84c.31,0,.55-.19.55-.38l.1-3.05c0-.21-.27-.37-.61-.35l-34.22,2.41A.6.6,0,0,0,87.33,216.76Z" style="fill: rgb(255, 255, 255); transform-origin: 104.654px 217.171px;" id="elm3a57gam4e" class="animable"></path><path d="M92.31,220.26l-.92.06c-.18,0-.33-.07-.32-.19l.15-4c0-.11.16-.22.34-.23l.92-.07c.18,0,.32.08.32.19l-.15,4C92.64,220.14,92.49,220.24,92.31,220.26Z" style="fill: rgb(38, 50, 56); transform-origin: 91.9348px 218.075px;" id="elo445t71rcei" class="animable"></path><path d="M119.49,218.35l-.92.06c-.18,0-.33-.07-.32-.19l.15-4c0-.11.16-.22.34-.23l.92-.07c.18,0,.33.07.32.19l-.15,4C119.82,218.23,119.67,218.33,119.49,218.35Z" style="fill: rgb(38, 50, 56); transform-origin: 119.115px 216.165px;" id="eldw95i2n4rec" class="animable"></path><path d="M106,219.3l-.91.06c-.19,0-.33-.07-.33-.19l.16-4c0-.11.15-.22.34-.23l.91-.07c.19,0,.33.08.33.19l-.16,4C106.29,219.18,106.14,219.28,106,219.3Z" style="fill: rgb(38, 50, 56); transform-origin: 105.63px 217.115px;" id="el0nmcac0fkgq" class="animable"></path><path d="M83.7,178.7c.34,2.55.66,5.21,1.07,7.8s.77,5.21,1.26,7.76,1,5.07,1.7,7.4a21.08,21.08,0,0,0,1.12,3.06c.1.23.19.33.27.49a1.91,1.91,0,0,0,.14.21,2,2,0,0,0,.65.47,9.62,9.62,0,0,0,2.75.8,24.61,24.61,0,0,0,3.52.28,63.92,63.92,0,0,0,7.61-.41c2.58-.27,5.18-.66,7.78-1.13s5.22-1,7.77-1.5l1.28,4c-2.59,1.05-5.17,1.9-7.8,2.73s-5.3,1.49-8,2.08A58.74,58.74,0,0,1,96.35,214a31.4,31.4,0,0,1-4.54,0,16.19,16.19,0,0,1-5-1.16,10,10,0,0,1-2.72-1.71,10.45,10.45,0,0,1-1.2-1.3c-.28-.41-.6-.85-.8-1.22a24.94,24.94,0,0,1-2-4.38,68,68,0,0,1-2.27-8.23c-.6-2.72-1.1-5.43-1.54-8.14s-.79-5.41-1-8.2Z" style="fill: rgb(181, 91, 82); transform-origin: 97.95px 196.391px;" id="el5avpvak47ke" class="animable"></path><path d="M78.44,168.67c-7.69,2.16-2.69,29.41-2.69,29.41l11.92-3.26s2.11-14.54.38-18.82C86.25,171.55,82.33,167.57,78.44,168.67Z" style="fill: rgb(64, 123, 255); transform-origin: 81.4418px 183.283px;" id="el6qrc9d1aza4" class="animable"></path><path d="M75.21,196.56a5.48,5.48,0,0,0,.5,2.09c.35.52,10.94-2.67,11.77-3.11s.71-2.25.67-2.56S75.11,195.68,75.21,196.56Z" style="fill: rgb(64, 123, 255); transform-origin: 81.6946px 195.832px;" id="elgzm3wimal98" class="animable"></path><g id="elsuu3temuusk"><path d="M75.21,196.56a5.48,5.48,0,0,0,.5,2.09c.35.52,10.94-2.67,11.77-3.11s.71-2.25.67-2.56S75.11,195.68,75.21,196.56Z" style="opacity: 0.1; transform-origin: 81.6946px 195.832px;" class="animable"></path></g><path d="M283.07,181.25A56.88,56.88,0,0,0,203.65,194,56.88,56.88,0,0,0,137,286.19l92.18,66.66,66.66-92.18A56.88,56.88,0,0,0,283.07,181.25Z" style="fill: rgb(64, 123, 255); transform-origin: 210.106px 261.654px;" id="elkv7t3n7ruq" class="animable"></path><g id="el10qzzpmy6pdq"><path d="M283.07,181.25A56.88,56.88,0,0,0,203.65,194,56.88,56.88,0,0,0,137,286.19l92.18,66.66,66.66-92.18A56.88,56.88,0,0,0,283.07,181.25Z" style="fill: rgb(255, 255, 255); opacity: 0.2; transform-origin: 210.106px 261.654px;" class="animable"></path></g><polygon points="132.4 205.16 128.81 211.29 122.17 209.71 126.06 202.17 132.4 205.16" style="fill: rgb(181, 91, 82); transform-origin: 127.285px 206.73px;" id="el1pe0gidgcgk" class="animable"></polygon><path d="M118.09,204l8-1.82-3.89,7.54s-5.36.14-7.07-2.87l1.64-2A2.42,2.42,0,0,1,118.09,204Z" style="fill: rgb(181, 91, 82); transform-origin: 120.61px 205.95px;" id="elolb50ejovw" class="animable"></path></g><defs>     <filter id="active" height="200%">         <feMorphology in="SourceAlpha" result="DILATED" operator="dilate" radius="2"></feMorphology>                <feFlood flood-color="#32DFEC" flood-opacity="1" result="PINK"></feFlood>        <feComposite in="PINK" in2="DILATED" operator="in" result="OUTLINE"></feComposite>        <feMerge>            <feMergeNode in="OUTLINE"></feMergeNode>            <feMergeNode in="SourceGraphic"></feMergeNode>        </feMerge>    </filter>    <filter id="hover" height="200%">        <feMorphology in="SourceAlpha" result="DILATED" operator="dilate" radius="2"></feMorphology>                <feFlood flood-color="#ff0000" flood-opacity="0.5" result="PINK"></feFlood>        <feComposite in="PINK" in2="DILATED" operator="in" result="OUTLINE"></feComposite>        <feMerge>            <feMergeNode in="OUTLINE"></feMergeNode>            <feMergeNode in="SourceGraphic"></feMergeNode>        </feMerge>            <feColorMatrix type="matrix" values="0   0   0   0   0                0   1   0   0   0                0   0   0   0   0                0   0   0   1   0 "></feColorMatrix>    </filter></defs></svg>